<svg id="图层_1" data-name="图层 1" xmlns="http://www.w3.org/2000/svg" viewBox="0 0 510 150"><defs><style>.cls-1{fill:#ffc000;}</style></defs><path class="cls-1" d="M14.08,8.7H35.83V47.4L68.38,8.7h26L53.23,56.1l39,52.5H65.83l-30-40.35V108.6H14.08Z"/><path class="cls-1" d="M107.3,100.05q-10.72-10.8-10.72-30,0-12.45,4.65-21.67A33.32,33.32,0,0,1,114.35,34.2a38.69,38.69,0,0,1,19.88-5q16.78,0,25.8,10.8t9,31.2c0,2.3-.06,4-.15,5.1h-51q1.49,8,6.9,12.08t14.55,4.12a50.07,50.07,0,0,0,11.55-1.42,43.92,43.92,0,0,0,10.5-3.83l3.45,17a56.67,56.67,0,0,1-13.28,4.88,64.39,64.39,0,0,1-14.77,1.72Q118,110.85,107.3,100.05Zm41.48-39.6a15,15,0,0,0-4.5-10.27q-4-3.82-10.8-3.83A15.13,15.13,0,0,0,122.9,50.1a17,17,0,0,0-5.17,10.35Z"/><path class="cls-1" d="M192.5,100.05q-10.73-10.8-10.73-30,0-12.45,4.65-21.67A33.4,33.4,0,0,1,199.55,34.2a38.68,38.68,0,0,1,19.87-5q16.8,0,25.8,10.8t9,31.2q0,3.45-.15,5.1h-51q1.5,8,6.9,12.08t14.55,4.12a49.94,49.94,0,0,0,11.55-1.42,43.76,43.76,0,0,0,10.5-3.83l3.45,17a56.42,56.42,0,0,1-13.27,4.88A64.41,64.41,0,0,1,222,110.85Q203.22,110.85,192.5,100.05ZM234,60.45a15,15,0,0,0-4.5-10.27q-4-3.82-10.8-3.83A15.1,15.1,0,0,0,208.1,50.1a17.1,17.1,0,0,0-5.18,10.35Z"/><path class="cls-1" d="M270,31.35h20.55l-.45,10h.6a27.23,27.23,0,0,1,9.53-9.15A25.78,25.78,0,0,1,313,29.1q13.05,0,20.48,10t7.42,27.83q0,21.15-11,32.48T298.47,110.7q-2.55,0-7.65-.3v30.9H270ZM314.9,86.1q4.88-6.15,4.87-18,0-9.6-3.07-15.07t-8.48-5.48q-4.8,0-9.3,4.13a37.34,37.34,0,0,0-8.1,11.77V90.9a38.1,38.1,0,0,0,9.75,1.35Q310,92.25,314.9,86.1Z"/><path class="cls-1" d="M429.62,8.7A66.3,66.3,0,1,0,495.92,75,66.3,66.3,0,0,0,429.62,8.7ZM467.8,50q-2.1,1.9-7.2,1.91h-5.33l.38,37.65a10.45,10.45,0,0,0,1.61,6c1,1.43,2.81,2.14,5.36,2.14h2.85a24.47,24.47,0,0,1,.9,6.75q0,1.65-.18,3.45a22.75,22.75,0,0,1-.72,3.68c-1.9.14-3.87.3-5.92.44s-3.93.23-5.63.23q-8.62,0-12.75-4.31t-4.12-11.81V51.9H423.1q0,10.05-1,20.77a152.45,152.45,0,0,1-3.49,21.08,88.27,88.27,0,0,1-7,19.28,24.57,24.57,0,0,1-4.87-.57A36,36,0,0,1,401.5,111a38,38,0,0,1-4.73-2,16.84,16.84,0,0,1-3.9-2.59,75.51,75.51,0,0,0,7.92-18.59,107.77,107.77,0,0,0,3.3-18.91q.69-8.45.76-17H390a22.35,22.35,0,0,1-.56-3.9c-.07-1.35-.11-2.52-.11-3.53s0-2.17.11-3.52a24.14,24.14,0,0,1,.56-4h78.9a13.68,13.68,0,0,1,.75,3.34A32.74,32.74,0,0,1,469.9,44Q469.9,48.08,467.8,50Z"/></svg>